<?xml version="1.0" encoding="iso-8859-1"?><!-- Generator: Adobe Illustrator 19.0.0, SVG Export Plug-In . SVG Version: 6.00 Build 0)  -->
<svg xmlns:xlink="http://www.w3.org/1999/xlink" style="enable-background:new 0 0 480 480;"
    id="Capa_1" version="1.1" viewBox="0 0 480 480" x="0px" xmlns="http://www.w3.org/2000/svg"
    y="0px" xml:space="preserve">
<path style="fill:#7D8D9C;" d="M56,256h368c8.837,0,16,7.163,16,16l0,0c0,8.837-7.163,16-16,16H56c-8.837,0-16-7.163-16-16l0,0
	C40,263.163,47.163,256,56,256z" />
    <path style="fill:#CFDFE8;"
        d="M72,288h336l0,0v48c0,35.346-28.654,64-64,64H136c-35.346,0-64-28.654-64-64V288L72,288z" />
    <g>
	<path style="fill:#7D8D9C;" d="M160,448h-32l16-48h32L160,448z" />
        <path style="fill:#7D8D9C;" d="M320,448h32l-16-48h-32L320,448z" />
</g>
    <path style="fill:#CFDFE8;"
        d="M280,80c26.51,0,48,21.49,48,48v16l0,0h-96l0,0v-16C232,101.49,253.49,80,280,80z" />
    <path style="fill:#7D8D9C;" d="M392,232c-4.418,0-8-3.582-8-8V40h-96v40c0,4.418-3.582,8-8,8s-8-3.582-8-8V32c0-4.418,3.582-8,8-8
	h112c4.418,0,8,3.582,8,8v192C400,228.418,396.418,232,392,232z" />
    <path style="fill:#E9686A;" d="M360,224h32v32h-32V224z" />
    <path style="fill:#7FCAC9;" d="M392,224h32v32h-32V224z" />
    <path style="fill:#394D5C;"
        d="M472,456H8c-4.418,0-8-3.582-8-8s3.582-8,8-8h464c4.418,0,8,3.582,8,8S476.418,456,472,456z" />
    <g>
	<path style="fill:#7D8D9C;"
        d="M120,328h-16c-4.418,0-8-3.582-8-8s3.582-8,8-8h16c4.418,0,8,3.582,8,8S124.418,328,120,328z" />
        <path style="fill:#7D8D9C;"
            d="M200,328h-48c-4.418,0-8-3.582-8-8s3.582-8,8-8h48c4.418,0,8,3.582,8,8S204.418,328,200,328z" />
</g>
    <g>
	<path style="fill:#195C85;" d="M232,208c-4.418,0-8-3.582-8-8v-24c0-4.418,3.582-8,8-8s8,3.582,8,8v24
		C240,204.418,236.418,208,232,208z" />
        <path style="fill:#195C85;" d="M264,232c-4.418,0-8-3.582-8-8v-24c0-4.418,3.582-8,8-8s8,3.582,8,8v24
		C272,228.418,268.418,232,264,232z" />
        <path style="fill:#195C85;" d="M296,208c-4.418,0-8-3.582-8-8v-24c0-4.418,3.582-8,8-8s8,3.582,8,8v24
		C304,204.418,300.418,208,296,208z" />
        <path style="fill:#195C85;" d="M328,232c-4.418,0-8-3.582-8-8v-24c0-4.418,3.582-8,8-8s8,3.582,8,8v24
		C336,228.418,332.418,232,328,232z" />
</g>
    <g>
</g>
    <g>
</g>
    <g>
</g>
    <g>
</g>
    <g>
</g>
    <g>
</g>
    <g>
</g>
    <g>
</g>
    <g>
</g>
    <g>
</g>
    <g>
</g>
    <g>
</g>
    <g>
</g>
    <g>
</g>
    <g>
</g>
</svg>
