<svg height="512" viewBox="0 0 58 58" width="512" xmlns="http://www.w3.org/2000/svg">
    <g fill="none" fill-rule="evenodd" id="Page-1">
        <g fill-rule="nonzero" id="028---No-Bugs-Home">
            <path d="m10 16.22v-9.22c0-.55228475.4477153-1 1-1h4c.5522847 0 1 .44771525 1 1v3.88z"
                fill="#35495e" id="Shape" />
            <path
                d="m51 23v33c0 1.1045695-.8954305 2-2 2h-40c-1.1045695 0-2-.8954305-2-2v-33l22-21z"
                fill="#f0c419" id="Shape" />
            <path
                d="m56 28c-.4889001.0012508-.9613253-.1766201-1.328-.5l-25.672-22.824-25.671 22.824c-.8256657.7339864-2.09001355.6596657-2.82399997-.166s-.6596657-2.0900136.16599997-2.824l27-24c.7578571-.67389796 1.9001429-.67389796 2.658 0l27 24c.6169393.5523949.8296464 1.4278617.5349472 2.2017522-.2946993.7738905-1.0358472 1.2861272-1.8639472 1.2882478z"
                fill="#e57e25" id="Shape" />
            <circle cx="29" cy="36" fill="#e64c3c" id="Oval" r="17" />
            <g fill="#f29c1f">
                <path d="m29 25c2.209139 0 4 1.790861 4 4h-8c0-2.209139 1.790861-4 4-4z"
                    id="Shape" />
                <path
                    d="m23 37h-5c-.5522847 0-1-.4477153-1-1s.4477153-1 1-1h5c.5522847 0 1 .4477153 1 1s-.4477153 1-1 1z"
                    id="Shape" />
                <path
                    d="m22.9 34.3c-.1070684.0001629-.2134528-.0170612-.315-.051l-.9-.3c-.378-.126-3.685-1.304-3.685-3.949 0-.5522847.4477153-1 1-1s1 .4477153 1 1c0 1.062 1.827 1.888 2.316 2.051l.9.3c.465753.1547317.7503816.6245882.6718345 1.1090447-.0785471.4844566-.4970518.840311-.9878345.8399553z"
                    id="Shape" />
                <path
                    d="m19 43c-.5522847 0-1-.4477153-1-1 0-2.645 3.307-3.823 3.684-3.949l.9-.3c.3394023-.1127173.7131569-.0358034.9804741.201769s.3875851.5997103.3155.95-.3255718.6355137-.6649741.748231l-.9.3c-.598.201-2.315 1.015-2.315 2.049 0 .5522847-.4477153 1-1 1z"
                    id="Shape" />
                <path
                    d="m40 37h-5c-.5522847 0-1-.4477153-1-1s.4477153-1 1-1h5c.5522847 0 1 .4477153 1 1s-.4477153 1-1 1z"
                    id="Shape" />
                <path
                    d="m35.1 34.3c-.4907827.0003557-.9092874-.3554987-.9878345-.8399553-.0785471-.4844565.2060815-.954313.6718345-1.1090447l.9-.3c.599-.203 2.316-1.017 2.316-2.051 0-.5522847.4477153-1 1-1s1 .4477153 1 1c0 2.645-3.307 3.823-3.684 3.949l-.9.3c-.1018653.0340458-.2085962.0512714-.316.051z"
                    id="Shape" />
                <path
                    d="m39 43c-.5522847 0-1-.4477153-1-1 0-1.062-1.827-1.888-2.316-2.051l-.9-.3c-.5246705-.1742458-.8087458-.7408295-.6345-1.2655s.7408295-.8087458 1.2655-.6345l.9.3c.378.128 3.685 1.306 3.685 3.951 0 .5522847-.4477153 1-1 1z"
                    id="Shape" />
            </g>
            <path
                d="m25 29h8c1.6568542 0 3 1.3431458 3 3v8c0 3.8659932-3.1340068 7-7 7s-7-3.1340068-7-7v-8c0-1.6568542 1.3431458-3 3-3z"
                fill="#f0c419" id="Shape" />
            <path
                d="m38.792 20.917c-.013-.009-.02-.024-.033-.033s-.042-.013-.062-.024c-8.2970604-5.2952132-19.309316-2.9380953-24.7118966 5.289457-5.40258059 8.2275523-3.1887583 19.2695073 4.9678966 24.778543.015.011.023.027.038.037.0324623.0174567.0658443.0331463.1.047 5.3762522 3.5631166 12.2488637 3.9745324 18.0117961 1.0782419 5.7629323-2.8962906 9.5337139-8.6567816 9.8824952-15.0971418.3487812-6.4403602-2.7778465-12.5743843-8.1942913-16.0761001zm-25.792 15.083c-.0071609-5.677771 2.9989251-10.9329704 7.8967466-13.804987 4.8978215-2.8720167 10.9517762-2.9295034 15.9032534-.151013l-17.509 26.644c-3.9605033-3.0171826-6.2868872-7.7091487-6.291-12.688zm16 16c-2.8311489-.0026711-5.6101006-.7622305-8.049-2.2l17.525-26.663c5.5717514 4.0906182 7.8821305 11.2996893 5.7260377 17.866944-2.1560928 6.5672548-8.2899101 11.0040152-15.2020377 10.996056z"
                fill="#ecf0f1" id="Shape" />
        </g>
    </g>
</svg>